<svg width="48" height="48" viewBox="0 0 48 48" fill="none" xmlns="http://www.w3.org/2000/svg">
<path fill-rule="evenodd" clip-rule="evenodd" d="M32.1555 25.5345C32.4894 25.608 32.7882 25.7934 33.0023 26.0599C33.2165 26.3264 33.3331 26.6581 33.333 27V30.3H34.5C34.7518 30.3001 34.9995 30.3636 35.2203 30.4847C35.441 30.6057 35.6278 30.7804 35.7633 30.9926C35.8989 31.2047 35.9788 31.4476 35.9958 31.6988C36.0128 31.9501 35.9662 32.2015 35.8605 32.43L32.5275 39.63C32.3837 39.9397 32.1385 40.1911 31.8325 40.3426C31.5264 40.4941 31.1779 40.5366 30.8444 40.4632C30.5109 40.3897 30.2124 40.2047 29.9983 39.9387C29.7843 39.6726 29.6674 39.3415 29.667 39V35.7H28.5C28.2482 35.6999 28.0005 35.6364 27.7797 35.5153C27.5589 35.3943 27.3722 35.2196 27.2366 35.0074C27.1011 34.7953 27.0212 34.5524 27.0042 34.3012C26.9872 34.0499 27.0337 33.7985 27.1395 33.57L30.4725 26.37C30.6159 26.0599 30.8609 25.808 31.167 25.6561C31.473 25.5041 31.8218 25.4613 32.1555 25.5345ZM29.751 25.4655C31.071 24.2595 31.5 22.3095 31.5 19.5C31.5 17.5109 30.7098 15.6032 29.3033 14.1967C27.8968 12.7902 25.9891 12 24 12C22.0109 12 20.1032 12.7902 18.6967 14.1967C17.2902 15.6032 16.5 17.5109 16.5 19.5C16.5 22.3095 16.929 24.2595 18.2475 25.4655C15.7948 26.8081 13.8856 28.9622 12.8475 31.5585C12.6045 32.1705 12.528 32.967 13.0905 33.3105C14.2785 34.038 15.5385 32.625 16.248 31.425C17.0837 30.0082 18.2919 28.8476 19.7412 28.0695C21.1904 27.2915 22.8253 26.9257 24.468 27.012C26.166 27.099 28.0275 26.9295 29.328 25.836C29.4716 25.7155 29.6127 25.592 29.751 25.4655ZM28.5 19.5C28.5 22.0245 28.0935 22.8615 27.795 23.184C27.552 23.448 26.775 24 24 24C21.225 24 20.448 23.448 20.205 23.184C19.905 22.86 19.5 22.0245 19.5 19.5C19.5 18.3065 19.9741 17.1619 20.818 16.318C21.6619 15.4741 22.8065 15 24 15C25.1935 15 26.3381 15.4741 27.182 16.318C28.0259 17.1619 28.5 18.3065 28.5 19.5Z" fill="black"/>
</svg>
