<svg width="48" height="48" viewBox="0 0 48 48" fill="none" xmlns="http://www.w3.org/2000/svg">
<g clip-path="url(#clip0_1_820)">
<path fill-rule="evenodd" clip-rule="evenodd" d="M24 48C37.254 48 48 37.254 48 24C48 10.746 37.254 0 24 0C10.746 0 0 10.746 0 24C0 37.254 10.746 48 24 48ZM24 45C35.046 45 45 35.046 45 24C45 12.954 35.046 3 24 3C12.954 3 3 12.954 3 24C3 29.616 5.5725 34.9485 9.5535 38.835L17.892 7.7115C17.995 7.3272 18.2465 6.99957 18.5911 6.80069C18.9357 6.60181 19.3452 6.54796 19.7295 6.651C20.1138 6.75404 20.4414 7.00552 20.6403 7.35011C20.8392 7.69471 20.893 8.1042 20.79 8.4885L20.688 8.8695C22.5195 8.2545 24.969 9.4125 28.5705 12.7875C32.82 16.77 35.97 16.7565 37.7805 16.749C39.5205 16.7415 40.0215 16.74 39.0705 20.2875C37.1295 27.5325 34.491 36.4815 24.8205 29.2875C20.8635 26.3445 18.2325 25.5585 16.647 25.086C16.6096 25.0743 16.5721 25.0628 16.5345 25.0515C16.4775 25.035 16.4205 25.0185 16.3665 25.0005L12.249 40.3635C12.1974 40.558 12.1071 40.7402 11.9835 40.899C15.456 43.452 19.6425 45 24 45Z" fill="black"/>
</g>
<defs>
<clipPath id="clip0_1_820">
<rect width="48" height="48" fill="white"/>
</clipPath>
</defs>
</svg>
